<?xml version="1.0" encoding="UTF-8" standalone="no"?>
<!DOCTYPE svg PUBLIC "-//W3C//DTD SVG 1.1//EN" "http://www.w3.org/Graphics/SVG/1.1/DTD/svg11.dtd">
<svg version="1.1" xmlns="http://www.w3.org/2000/svg" xmlns:xlink="http://www.w3.org/1999/xlink" preserveAspectRatio="xMidYMid meet" viewBox="0 0 640 640" width="640" height="640"><defs><path d="M415.71 263.8C415.71 304.98 415.71 438.75 415.71 482.49C415.71 504.31 398.02 522 376.2 522C339.59 522 271.77 522 235.78 522C212.23 522 193.13 502.9 193.13 479.34C193.13 450.6 193.13 378.75 193.13 263.8" id="adm0paNmC"></path><path d="" id="c4QhvFQNET"></path><path d="M208.72 111.88C214.25 111.88 218.72 116.36 218.72 121.88C218.72 135.8 218.72 167.54 218.72 181.46C218.72 186.98 214.25 191.46 208.72 191.46C205.6 191.46 206.25 191.46 203.13 191.46C197.6 191.46 193.13 186.98 193.13 181.46C193.13 167.54 193.13 135.8 193.13 121.88C193.13 116.36 197.6 111.88 203.13 111.88C206.25 111.88 205.6 111.88 208.72 111.88Z" id="cKXHE3ttN"></path><path d="M405.71 110.75C411.23 110.75 415.71 115.23 415.71 120.75C415.71 134.67 415.71 166.41 415.71 180.33C415.71 185.85 411.23 190.33 405.71 190.33C402.59 190.33 403.23 190.33 400.11 190.33C394.59 190.33 390.11 185.85 390.11 180.33C390.11 166.41 390.11 134.67 390.11 120.75C390.11 115.23 394.59 110.75 400.11 110.75C403.23 110.75 402.59 110.75 405.71 110.75Z" id="dfCDl7by1"></path><path d="M235.12 230.97C237.74 230.97 239.87 233.09 239.87 235.72C239.87 283.62 239.87 422.6 239.87 470.5C239.87 473.13 237.74 475.25 235.12 475.25C231.84 475.25 226.75 475.25 223.47 475.25C220.85 475.25 218.72 473.13 218.72 470.5C218.72 422.6 218.72 283.62 218.72 235.72C218.72 233.09 220.85 230.97 223.47 230.97C226.75 230.97 231.84 230.97 235.12 230.97Z" id="a5bEFtGwUT"></path><path d="M385.36 230.97C387.99 230.97 390.11 233.09 390.11 235.72C390.11 283.62 390.11 422.6 390.11 470.5C390.11 473.13 387.99 475.25 385.36 475.25C382.09 475.25 377 475.25 373.72 475.25C371.1 475.25 368.97 473.13 368.97 470.5C368.97 422.6 368.97 283.62 368.97 235.72C368.97 233.09 371.1 230.97 373.72 230.97C377 230.97 382.09 230.97 385.36 230.97Z" id="a6lHBkO6yH"></path><path d="M342.45 397.35C350.49 397.35 357 403.87 357 411.91C357 418.01 357 416.69 357 421.53C357 433.07 347.65 442.42 336.11 442.42C319.25 442.42 289.04 442.42 272.04 442.42C260.88 442.42 251.83 433.37 251.83 422.21C251.83 417.24 251.83 418.34 251.83 412.32C251.83 404.05 258.54 397.35 266.8 397.35C284.84 397.35 324.32 397.35 342.45 397.35Z" id="c1biFUjlJq"></path><path d="M308.87 431.39C308.87 433.59 306.88 435.37 304.42 435.37C301.96 435.37 299.97 433.59 299.97 431.39C299.97 429.18 301.96 427.4 304.42 427.4C306.88 427.4 308.87 429.18 308.87 431.39Z" id="dbYX11BaN"></path><path d="M192.01 485.27C186.57 482.28 183.17 480.41 181.81 479.66C174.32 475.54 169.5 467.82 169.09 459.28C168.44 446.01 166.97 415.84 166.28 401.54C166.05 396.84 169.8 392.9 174.52 392.9C177.29 392.9 184.24 392.9 195.35 392.9" id="a3uhJAPOv1"></path><path d="M417.22 485.27C422.66 482.28 426.06 480.41 427.42 479.66C434.91 475.54 439.73 467.82 440.15 459.28C440.79 446.01 442.26 415.84 442.95 401.54C443.18 396.84 439.43 392.9 434.72 392.9C431.94 392.9 424.99 392.9 413.88 392.9" id="b173vcaJNl"></path><path d="M335.86 191.18C348.31 191.18 358.4 201.27 358.4 213.72C358.4 218.22 358.4 209.21 358.4 213.72C358.4 226.16 348.31 236.25 335.86 236.25C318.78 236.25 290.06 236.25 272.98 236.25C260.53 236.25 250.44 226.16 250.44 213.72C250.44 209.21 250.44 218.22 250.44 213.72C250.44 201.27 260.53 191.18 272.98 191.18C290.06 191.18 318.78 191.18 335.86 191.18Z" id="b1nKsyZHA"></path><path d="M390.11 125.24L220.39 125.24" id="a29yJtDn7"></path><path d="M435.47 180.88C442.38 180.88 446.7 180.88 448.42 180.88C454.94 180.88 460.23 175.6 460.23 169.08C460.23 160.31 460.23 146.44 460.23 137.83C460.23 130.87 454.59 125.24 447.64 125.24C443.38 125.24 432.74 125.24 415.71 125.24" id="f9dGnOY59"></path><path d="M173.37 180.88C166.46 180.88 162.14 180.88 160.41 180.88C153.89 180.88 148.61 175.6 148.61 169.08C148.61 160.31 148.61 146.44 148.61 137.83C148.61 130.87 154.25 125.24 161.2 125.24C165.46 125.24 176.1 125.24 193.13 125.24" id="eNpAfcfjz"></path><path d="M215.42 263.8C210.63 263.8 207.64 263.8 206.44 263.8C186.8 263.8 170.87 247.87 170.87 228.22C170.87 215.3 170.87 190.59 170.87 172.29C170.87 167.51 174.74 163.63 179.52 163.63C181.34 163.63 185.87 163.63 193.13 163.63" id="a13LwNATRc"></path><path d="M393.47 263.8C398.25 263.8 401.24 263.8 402.44 263.8C422.07 263.8 437.99 247.88 437.99 228.25C437.99 215.32 437.99 190.59 437.99 172.28C437.99 167.51 434.11 163.63 429.34 163.63C427.52 163.63 422.99 163.63 415.74 163.63" id="m4ZzMxJeGn"></path><path d="M368.97 263.8L239.87 263.8" id="a1e8Q0wtOx"></path><path d="M390.11 163.63L218.72 163.63" id="bdfp4dQf"></path><path d="M343.37 440.75C343.37 452.81 343.37 460.34 343.37 463.35C343.37 469 338.79 473.58 333.14 473.58C319.38 473.58 288.97 473.58 275.37 473.58C269.29 473.58 264.35 468.65 264.35 462.57C264.35 459.66 264.35 452.39 264.35 440.75" id="a1yeBog0Gw"></path><path d="" id="aAbhy4qRd"></path><path d="M239.82 308.87C244 308.87 247.38 312.26 247.38 316.43C247.38 318.37 247.38 316.62 247.38 318.56C247.38 322.74 244 326.12 239.82 326.12C234.1 326.12 224.49 326.12 218.77 326.12C214.6 326.12 211.21 322.74 211.21 318.56C211.21 316.62 211.21 318.37 211.21 316.43C211.21 312.26 214.6 308.87 218.77 308.87C224.49 308.87 234.1 308.87 239.82 308.87Z" id="f17at7bFpr"></path><path d="M390.07 308.87C394.24 308.87 397.63 312.26 397.63 316.43C397.63 318.37 397.63 316.62 397.63 318.56C397.63 322.74 394.24 326.12 390.07 326.12C384.34 326.12 374.74 326.12 369.02 326.12C364.84 326.12 361.46 322.74 361.46 318.56C361.46 316.62 361.46 318.37 361.46 316.43C361.46 312.26 364.84 308.87 369.02 308.87C374.74 308.87 384.34 308.87 390.07 308.87Z" id="bkvoR5AdV"></path><path d="M390.07 464.96C394.24 464.96 397.63 468.34 397.63 472.52C397.63 474.46 397.63 472.71 397.63 474.65C397.63 478.82 394.24 482.21 390.07 482.21C384.34 482.21 374.74 482.21 369.02 482.21C364.84 482.21 361.46 478.82 361.46 474.65C361.46 472.71 361.46 474.46 361.46 472.52C361.46 468.34 364.84 464.96 369.02 464.96C374.74 464.96 384.34 464.96 390.07 464.96Z" id="c2hFsqhHmU"></path><path d="M239.82 464.96C244 464.96 247.38 468.34 247.38 472.52C247.38 474.46 247.38 472.71 247.38 474.65C247.38 478.82 244 482.21 239.82 482.21C234.1 482.21 224.49 482.21 218.77 482.21C214.6 482.21 211.21 478.82 211.21 474.65C211.21 472.71 211.21 474.46 211.21 472.52C211.21 468.34 214.6 464.96 218.77 464.96C224.49 464.96 234.1 464.96 239.82 464.96Z" id="d1c1Q3QeJS"></path></defs><g><g><g><g><use xlink:href="#adm0paNmC" opacity="1" fill-opacity="0" stroke="#ff1325" stroke-width="8" stroke-opacity="1"></use></g></g><g><g><use xlink:href="#c4QhvFQNET" opacity="1" fill-opacity="0" stroke="#ffffff" stroke-width="1" stroke-opacity="1"></use></g></g><g><g><use xlink:href="#cKXHE3ttN" opacity="1" fill-opacity="0" stroke="#ff1325" stroke-width="6" stroke-opacity="1"></use></g></g><g><g><use xlink:href="#dfCDl7by1" opacity="1" fill-opacity="0" stroke="#ff1325" stroke-width="6" stroke-opacity="1"></use></g></g><g><g><use xlink:href="#a5bEFtGwUT" opacity="1" fill-opacity="0" stroke="#ff1325" stroke-width="6" stroke-opacity="1"></use></g></g><g><g><use xlink:href="#a6lHBkO6yH" opacity="1" fill-opacity="0" stroke="#ff1325" stroke-width="6" stroke-opacity="1"></use></g></g><g><g><use xlink:href="#c1biFUjlJq" opacity="1" fill-opacity="0" stroke="#ff1325" stroke-width="6" stroke-opacity="1"></use></g></g><g><g><use xlink:href="#dbYX11BaN" opacity="1" fill-opacity="0" stroke="#ff1325" stroke-width="4" stroke-opacity="1"></use></g></g><g><g><use xlink:href="#a3uhJAPOv1" opacity="1" fill-opacity="0" stroke="#ff1325" stroke-width="8" stroke-opacity="1"></use></g></g><g><g><use xlink:href="#b173vcaJNl" opacity="1" fill-opacity="0" stroke="#ff1325" stroke-width="8" stroke-opacity="1"></use></g></g><g><g><use xlink:href="#b1nKsyZHA" opacity="1" fill-opacity="0" stroke="#ff1325" stroke-width="6" stroke-opacity="1"></use></g></g><g><g><use xlink:href="#a29yJtDn7" opacity="1" fill-opacity="0" stroke="#ff1325" stroke-width="8" stroke-opacity="1"></use></g></g><g><g><use xlink:href="#f9dGnOY59" opacity="1" fill-opacity="0" stroke="#ff1325" stroke-width="7" stroke-opacity="1"></use></g></g><g><g><use xlink:href="#eNpAfcfjz" opacity="1" fill-opacity="0" stroke="#ff1325" stroke-width="7" stroke-opacity="1"></use></g></g><g><g><use xlink:href="#a13LwNATRc" opacity="1" fill-opacity="0" stroke="#ff1325" stroke-width="7" stroke-opacity="1"></use></g></g><g><g><use xlink:href="#m4ZzMxJeGn" opacity="1" fill-opacity="0" stroke="#ff1325" stroke-width="7" stroke-opacity="1"></use></g></g><g><g><use xlink:href="#a1e8Q0wtOx" opacity="1" fill-opacity="0" stroke="#ff1325" stroke-width="7" stroke-opacity="1"></use></g></g><g><g><use xlink:href="#bdfp4dQf" opacity="1" fill-opacity="0" stroke="#ff1325" stroke-width="8" stroke-opacity="1"></use></g></g><g><g><use xlink:href="#a1yeBog0Gw" opacity="1" fill-opacity="0" stroke="#ff1325" stroke-width="6" stroke-opacity="1"></use></g></g><g><g><use xlink:href="#aAbhy4qRd" opacity="1" fill-opacity="0" stroke="#ff1325" stroke-width="6" stroke-opacity="1"></use></g></g><g><use xlink:href="#f17at7bFpr" opacity="1" fill="#ff1325" fill-opacity="1"></use></g><g><use xlink:href="#bkvoR5AdV" opacity="1" fill="#ff1325" fill-opacity="1"></use></g><g><use xlink:href="#c2hFsqhHmU" opacity="1" fill="#ff1325" fill-opacity="1"></use></g><g><use xlink:href="#d1c1Q3QeJS" opacity="1" fill="#ff1325" fill-opacity="1"></use></g></g></g></svg>