<?xml version="1.0" encoding="UTF-8" standalone="no"?>
<!DOCTYPE svg PUBLIC "-//W3C//DTD SVG 1.1//EN" "http://www.w3.org/Graphics/SVG/1.1/DTD/svg11.dtd">
<svg version="1.1" xmlns="http://www.w3.org/2000/svg" xmlns:xlink="http://www.w3.org/1999/xlink" preserveAspectRatio="xMidYMid meet" viewBox="0 0 640 640" width="640" height="640"><defs><path d="M430.29 338.22C430.29 397.14 380.98 444.97 320.24 444.97C259.5 444.97 210.19 397.14 210.19 338.22C210.19 279.31 259.5 231.48 320.24 231.48C380.98 231.48 430.29 279.31 430.29 338.22Z" id="bHVqJ7tzm"></path><path d="M299.88 383.79C299.88 391.69 292.76 398.11 283.98 398.11C275.2 398.11 268.08 391.69 268.08 383.79C268.08 375.88 275.2 369.47 283.98 369.47C292.76 369.47 299.88 375.88 299.88 383.79Z" id="a5wtx1p1gU"></path><path d="M439.42 157.13C445.09 157.14 449.68 161.74 449.67 167.41C449.65 180.17 449.61 208.17 449.59 220.92C449.59 226.59 444.98 231.18 439.31 231.18C422.16 231.15 380.95 231.09 363.79 231.07C358.12 231.06 353.53 226.45 353.54 220.78C353.55 208.03 353.59 180.03 353.61 167.27C353.62 161.6 358.22 157.01 363.89 157.02C381.05 157.04 422.26 157.1 439.42 157.13Z" id="b1NFoecZ4k"></path><path d="M194.02 271.29C198.45 271.33 202.01 274.96 201.97 279.39C201.74 302.97 201.14 365.67 200.92 389.24C200.88 393.68 197.25 397.23 192.81 397.19C171.93 396.98 117.3 396.43 96.42 396.22C91.99 396.18 88.43 392.55 88.47 388.12C88.69 364.54 89.29 301.84 89.52 278.27C89.56 273.84 93.19 270.28 97.62 270.32C118.51 270.53 173.13 271.08 194.02 271.29Z" id="d11TWajRT1"></path><path d="M430.98 340.05C446.76 339.92 456.62 339.85 460.56 339.82C466.29 339.77 470.8 334.9 470.39 329.18C469.9 322.13 469.11 311.01 468.6 303.83C468.21 298.24 463.57 293.91 457.97 293.9C453 293.89 440.6 293.87 420.76 293.83C420.99 294.37 421.13 294.71 421.19 294.85C427.19 309 430.5 324.15 430.97 339.51C430.97 339.58 430.97 339.76 430.98 340.05Z" id="a3DmtrC5ul"></path><path d="M335.53 220.27C334.74 228.13 285.98 229.44 226.73 223.19C167.47 216.94 120 205.48 120.79 197.62C121.59 189.76 170.34 188.45 229.6 194.7C288.85 200.95 336.32 212.41 335.53 220.27Z" id="b20PwimikN"></path><path d="M421.38 97.07C421.95 102.43 385.7 110.84 340.48 115.84C295.26 120.84 258.09 120.55 257.52 115.2C256.96 109.84 293.21 101.43 338.43 96.43C383.65 91.42 420.82 91.71 421.38 97.07Z" id="a1ZgIKGI2"></path><path d="M566.93 232.3C566.94 234.58 541.76 236.59 510.73 236.79C479.69 237 454.49 235.32 454.47 233.05C454.46 230.77 479.64 228.76 510.67 228.55C541.71 228.35 566.91 230.03 566.93 232.3Z" id="a3c3XtLV0m"></path><path d="M509.81 177.3L509.81 219.17" id="b1t1yXD4D"></path><path d="" id="b3zYjf7xge"></path><path d="M380.63 449.53C388.37 440.53 393.21 434.9 395.14 432.65C405.31 420.84 410.89 405.77 410.89 390.19C410.89 351.91 410.89 258.81 410.89 219.93C410.89 206.35 405.74 193.28 396.49 183.35C389.48 175.83 371.95 157.03 343.91 126.94" id="e7cKBdFnsH"></path><path d="M200.06 450.72C205.8 443.51 209.39 439.01 210.83 437.2C220.32 425.29 225.44 410.48 225.33 395.25C225.18 373.57 224.79 319.38 224.17 232.67" id="bv5yhfvel"></path><path d="M488.82 446.72C495.07 437.69 498.98 432.05 500.54 429.79C506.58 421.08 509.81 410.73 509.81 400.13C509.81 379.79 509.81 328.92 509.81 247.54" id="c9MgIupYZv"></path><path d="M538.44 449.53L518.97 417.63" id="l12JwrpI3w"></path><path d="M108.15 372.88L108.02 291.2" id="ftzqn6Nar"></path><path d="" id="agY8ZRf16"></path><path d="M73.07 450.72C75.78 448.18 77.47 446.59 78.15 445.95C84.14 440.32 87.67 432.54 87.96 424.32C88.12 419.71 88.52 408.19 89.17 389.76" id="bbqFYJsU5J"></path><path d="M205.71 446.72C204.83 444.15 204.29 442.54 204.07 441.9C201.12 433.25 199.77 424.14 200.09 415.01C200.19 412.18 200.44 405.09 200.83 393.76" id="a2me4f0zYT"></path><path d="M434.49 450.72L415.03 418.83" id="cpVYXx2uB"></path><path d="M252.81 450.72L233.34 418.83" id="d2Hg7Ze3xI"></path><path d="M370.53 210.9L370.46 177.3" id="b1Oygcri4"></path><path d="" id="b13xnqFWqz"></path><path d="" id="b5IlZYkpD"></path></defs><g><g><g><g><use xlink:href="#bHVqJ7tzm" opacity="1" fill-opacity="0" stroke="#ff1325" stroke-width="8" stroke-opacity="1"></use></g></g><g><g><use xlink:href="#a5wtx1p1gU" opacity="1" fill-opacity="0" stroke="#ff1325" stroke-width="8" stroke-opacity="1"></use></g></g><g><g><use xlink:href="#b1NFoecZ4k" opacity="1" fill-opacity="0" stroke="#ff1325" stroke-width="8" stroke-opacity="1"></use></g></g><g><g><use xlink:href="#d11TWajRT1" opacity="1" fill-opacity="0" stroke="#ff1325" stroke-width="8" stroke-opacity="1"></use></g></g><g><g><use xlink:href="#a3DmtrC5ul" opacity="1" fill-opacity="0" stroke="#ff1325" stroke-width="8" stroke-opacity="1"></use></g></g><g><g><use xlink:href="#b20PwimikN" opacity="1" fill-opacity="0" stroke="#ff1325" stroke-width="8" stroke-opacity="1"></use></g></g><g><g><use xlink:href="#a1ZgIKGI2" opacity="1" fill-opacity="0" stroke="#ff1325" stroke-width="8" stroke-opacity="1"></use></g></g><g><use xlink:href="#a3c3XtLV0m" opacity="1" fill="#ffffff" fill-opacity="1"></use><g><use xlink:href="#a3c3XtLV0m" opacity="1" fill-opacity="0" stroke="#ff1325" stroke-width="8" stroke-opacity="1"></use></g></g><g><g><use xlink:href="#b1t1yXD4D" opacity="1" fill-opacity="0" stroke="#ff1325" stroke-width="8" stroke-opacity="1"></use></g></g><g><g><use xlink:href="#b3zYjf7xge" opacity="1" fill-opacity="0" stroke="#ff1325" stroke-width="8" stroke-opacity="1"></use></g></g><g><g><use xlink:href="#e7cKBdFnsH" opacity="1" fill-opacity="0" stroke="#ff1325" stroke-width="8" stroke-opacity="1"></use></g></g><g><g><use xlink:href="#bv5yhfvel" opacity="1" fill-opacity="0" stroke="#ff1325" stroke-width="8" stroke-opacity="1"></use></g></g><g><g><use xlink:href="#c9MgIupYZv" opacity="1" fill-opacity="0" stroke="#ff1325" stroke-width="8" stroke-opacity="1"></use></g></g><g><g><use xlink:href="#l12JwrpI3w" opacity="1" fill-opacity="0" stroke="#ff1325" stroke-width="8" stroke-opacity="1"></use></g></g><g><g><use xlink:href="#ftzqn6Nar" opacity="1" fill-opacity="0" stroke="#ff1325" stroke-width="8" stroke-opacity="1"></use></g></g><g><g><use xlink:href="#agY8ZRf16" opacity="1" fill-opacity="0" stroke="#ff1325" stroke-width="8" stroke-opacity="1"></use></g></g><g><g><use xlink:href="#bbqFYJsU5J" opacity="1" fill-opacity="0" stroke="#ff1325" stroke-width="8" stroke-opacity="1"></use></g></g><g><g><use xlink:href="#a2me4f0zYT" opacity="1" fill-opacity="0" stroke="#ff1325" stroke-width="8" stroke-opacity="1"></use></g></g><g><g><use xlink:href="#cpVYXx2uB" opacity="1" fill-opacity="0" stroke="#ff1325" stroke-width="8" stroke-opacity="1"></use></g></g><g><g><use xlink:href="#d2Hg7Ze3xI" opacity="1" fill-opacity="0" stroke="#ff1325" stroke-width="8" stroke-opacity="1"></use></g></g><g><g><use xlink:href="#b1Oygcri4" opacity="1" fill-opacity="0" stroke="#ff1325" stroke-width="8" stroke-opacity="1"></use></g></g><g><g><use xlink:href="#b13xnqFWqz" opacity="1" fill-opacity="0" stroke="#ff1325" stroke-width="8" stroke-opacity="1"></use></g></g><g><g><use xlink:href="#b5IlZYkpD" opacity="1" fill-opacity="0" stroke="#ff1325" stroke-width="8" stroke-opacity="1"></use></g></g></g></g></svg>