<?xml version="1.0" encoding="UTF-8" standalone="no"?>
<!DOCTYPE svg PUBLIC "-//W3C//DTD SVG 1.1//EN" "http://www.w3.org/Graphics/SVG/1.1/DTD/svg11.dtd">
<svg version="1.1" xmlns="http://www.w3.org/2000/svg" xmlns:xlink="http://www.w3.org/1999/xlink" preserveAspectRatio="xMidYMid meet" viewBox="0 0 640 640" width="640" height="640"><defs><path d="M445.51 249.32C436.59 218.21 431.01 198.76 428.78 190.98C427.91 187.94 424.09 186.93 421.83 189.16C408.03 202.75 368.09 242.09 353.4 256.56C353.15 256.8 352.73 256.68 352.64 256.34C344 220.66 319.3 118.7 310.92 84.09C310.41 81.98 307.55 81.65 306.57 83.59C287.33 121.63 233.01 229.06 213.9 266.84C212.61 269.4 208.85 269.11 207.97 266.38C203.33 252.06 191.15 214.45 186.34 199.61C185.67 197.53 182.96 197.02 181.58 198.72C151.84 235.21 67.34 338.9 37.98 374.93C35.69 377.74 37.27 381.98 40.84 382.6C134.07 398.79 407.13 446.22 500.7 462.48C503.6 462.98 506.03 460.28 505.22 457.44C497.26 429.69 477.35 360.32 445.51 249.32Z" id="bJ7U8Q8Hm"></path><path d="M170.87 254.34L85.17 362.29" id="k3h5eem1wo"></path><path d="M298.85 149.72L241.54 268.25" id="b1mbDQcZG"></path><path d="M419.05 222.06L381.21 262.68" id="a1uAJVREMM"></path></defs><g><g><g><g><use xlink:href="#bJ7U8Q8Hm" opacity="1" fill-opacity="0" stroke="#ff1325" stroke-width="10" stroke-opacity="1"></use></g></g><g><g><use xlink:href="#k3h5eem1wo" opacity="1" fill-opacity="0" stroke="#ff1325" stroke-width="8" stroke-opacity="1"></use></g></g><g><g><use xlink:href="#b1mbDQcZG" opacity="1" fill-opacity="0" stroke="#ff1325" stroke-width="8" stroke-opacity="1"></use></g></g><g><g><use xlink:href="#a1uAJVREMM" opacity="1" fill-opacity="0" stroke="#ff1325" stroke-width="8" stroke-opacity="1"></use></g></g></g></g></svg>