<?xml version="1.0" encoding="UTF-8" standalone="no"?>
<!DOCTYPE svg PUBLIC "-//W3C//DTD SVG 1.1//EN" "http://www.w3.org/Graphics/SVG/1.1/DTD/svg11.dtd">
<svg version="1.1" xmlns="http://www.w3.org/2000/svg" xmlns:xlink="http://www.w3.org/1999/xlink" preserveAspectRatio="xMidYMid meet" viewBox="0 0 640 640" width="640" height="640"><defs><path d="" id="a1OPHtozqy"></path><path d="" id="k2R3aMDoJ"></path><path d="" id="gO9EIpcLW"></path><path d="" id="d2wImeRNE9"></path><path d="" id="i1KtuCS8El"></path><path d="" id="acWqf504f"></path><path d="M300.52 163.08C310.15 163.56 316.17 163.86 318.58 163.98C324.11 164.26 329.6 164.98 335.01 166.13C339.47 167.08 341.95 167.6 345.72 168.41C352.32 169.81 356.84 175.92 356.24 182.65C352.89 220.69 343.71 324.89 340.31 363.39C339.84 368.75 335.35 372.86 329.97 372.86C317.18 372.86 288.95 372.86 276.32 372.86C270.48 372.86 265.6 368.43 265.03 362.61C261.34 324.26 251.18 218.9 247.47 180.41C246.94 174.93 250.51 169.89 255.85 168.57C259.23 167.74 259.54 167.66 262.79 166.86C269.42 165.22 276.18 164.23 282.99 163.91C285.33 163.8 291.17 163.52 300.52 163.08Z" id="e30OvowuO"></path><path d="" id="b1idzvpNvH"></path><path d="" id="e4a7x4yZ5A"></path><path d="" id="b87SBEa2z"></path><path d="" id="b5DDmk5QP"></path><path d="" id="d1jcRn3W7O"></path><path d="M340.59 353.65C344.55 355.74 347.02 357.04 348.01 357.57C363.28 365.62 379.92 370.59 396.97 372.24C403.77 372.9 410.63 373.04 417.5 372.64C442.16 371.19 446.03 370.97 429.12 371.96C445.82 370.98 462.08 366.23 476.69 358.07C486.64 352.51 478.05 357.31 483.94 354.02C510.48 339.2 527.79 312.04 530.03 281.72C531.09 267.28 531.51 261.61 532.78 244.44C532.78 244.44 535.35 174.51 535.35 174.51C535.35 165.71 535.35 151.35 535.35 136.8C535.35 133.33 532.53 130.51 529.06 130.51C522.64 130.51 510.3 130.51 504.04 130.51C500.13 130.51 496.96 133.68 496.96 137.59C496.96 144.85 496.96 157.68 496.96 164.47C496.96 169.68 492.73 173.91 487.51 173.91C482.72 173.91 477.85 173.91 473.08 173.91C467.98 173.91 464 178.31 464.5 183.38C464.87 187.16 465.24 190.96 465.66 195.23C466.06 199.29 469.36 202.46 473.44 202.68C475.39 202.78 480.26 203.05 488.06 203.48C488.43 203.5 488.65 203.51 488.74 203.51C493.37 203.77 497.01 207.55 497.08 212.19C497.39 232.35 497.82 260.4 498.04 274.51C498.39 297.93 484.93 319.37 463.67 329.22C458.02 331.84 463.48 329.31 454.7 333.38C442.02 339.25 428.13 342.05 414.17 341.56C408.69 341.37 406.74 341.3 399.57 341.04C391.17 340.74 382.98 338.37 375.71 334.14C372.29 332.14 376.77 334.76 374.27 333.3C363.94 327.28 355.05 319.07 348.22 309.24C347.72 308.53 346.48 306.73 344.48 303.86" id="b3gyifPeSb"></path><path d="" id="b4D0Kxbcjn"></path><path d="" id="cu6k37Bvi"></path><path d="" id="b80EfyA9cM"></path><path d="M263.78 355.88C259.82 357.96 257.35 359.27 256.36 359.79C235 371.06 210.97 376.28 186.86 374.86C179.47 374.43 184.95 374.75 175.25 374.18C158.55 373.21 142.29 368.46 127.68 360.3C117.73 354.74 126.32 359.54 120.43 356.25C93.89 341.42 76.58 314.26 74.34 283.95C73.28 269.51 72.86 263.84 71.59 246.67C71.59 246.67 69.02 176.74 69.02 176.74C69.02 167.94 69.02 153.57 69.02 139.03C69.02 135.55 71.84 132.73 75.31 132.73C81.73 132.73 94.07 132.73 100.33 132.73C104.24 132.73 107.41 135.9 107.41 139.82C107.41 147.08 107.41 159.9 107.41 166.69C107.41 171.91 111.64 176.14 116.86 176.14C121.65 176.14 126.52 176.14 131.29 176.14C136.39 176.14 140.37 180.53 139.87 185.6C139.5 189.38 139.13 193.19 138.71 197.45C138.31 201.52 135.01 204.68 130.93 204.9C128.98 205.01 124.11 205.28 116.31 205.7C115.94 205.72 115.72 205.73 115.63 205.74C111 205.99 107.36 209.78 107.29 214.41C106.98 234.58 106.55 262.63 106.33 276.74C105.98 300.16 119.44 321.6 140.7 331.45C146.35 334.07 140.89 331.53 149.67 335.6C162.35 341.48 176.24 344.28 190.2 343.79C195.68 343.59 197.63 343.52 204.8 343.27C213.2 342.97 221.39 340.6 228.66 336.37C232.08 334.37 227.6 336.98 230.1 335.53C240.47 329.48 249.66 321.6 257.23 312.28C257.65 311.75 258.73 310.43 260.44 308.31" id="b4YguC88Wp"></path><path d="" id="aqYK6jG8G"></path><path d="M282.16 354.5L266.01 183.67" id="b3H8tJUkm1"></path><path d="M142.49 199.8L144.16 183.67" id="awqDuheVF"></path><path d="M152.49 193.13L145.29 191.59" id="b128VFsKIc"></path><path d="M83.5 206.48L82.39 148.05" id="a1CJewX8R"></path><path d="M95.73 206.48L94.62 148.05" id="b1rpZKsi9N"></path><path d="M272.22 509.75L273.62 386.22" id="d8SFfoI9j"></path><path d="M288.09 500.85L288.09 397.91" id="atXbzqgVa"></path><path d="M333.72 509.75L333.72 386.22" id="b1I9FUPbeC"></path><path d="M525.34 145.83L508.09 145.83" id="b6SmdKNKP"></path><path d="M525.34 157.5L508.09 157.5" id="baioMyMlw"></path></defs><g><g><g><g><use xlink:href="#a1OPHtozqy" opacity="1" fill-opacity="0" stroke="#afa6f3" stroke-width="1" stroke-opacity="1"></use></g></g><g><g><use xlink:href="#k2R3aMDoJ" opacity="1" fill-opacity="0" stroke="#afa6f3" stroke-width="1" stroke-opacity="1"></use></g></g><g><g><use xlink:href="#gO9EIpcLW" opacity="1" fill-opacity="0" stroke="#afa6f3" stroke-width="1" stroke-opacity="1"></use></g></g><g><g><use xlink:href="#d2wImeRNE9" opacity="1" fill-opacity="0" stroke="#afa6f3" stroke-width="1" stroke-opacity="1"></use></g></g><g><g><use xlink:href="#i1KtuCS8El" opacity="1" fill-opacity="0" stroke="#afa6f3" stroke-width="1" stroke-opacity="1"></use></g></g><g><g><use xlink:href="#acWqf504f" opacity="1" fill-opacity="0" stroke="#afa6f3" stroke-width="1" stroke-opacity="1"></use></g></g><g><g><use xlink:href="#e30OvowuO" opacity="1" fill-opacity="0" stroke="#ff1325" stroke-width="8" stroke-opacity="1"></use></g></g><g><g><use xlink:href="#b1idzvpNvH" opacity="1" fill-opacity="0" stroke="#afa6f3" stroke-width="2" stroke-opacity="1"></use></g></g><g><g><use xlink:href="#e4a7x4yZ5A" opacity="1" fill-opacity="0" stroke="#afa6f3" stroke-width="2" stroke-opacity="1"></use></g></g><g><g><use xlink:href="#b87SBEa2z" opacity="1" fill-opacity="0" stroke="#afa6f3" stroke-width="2" stroke-opacity="1"></use></g></g><g><g><use xlink:href="#b5DDmk5QP" opacity="1" fill-opacity="0" stroke="#ff1325" stroke-width="3" stroke-opacity="1"></use></g></g><g><g><use xlink:href="#d1jcRn3W7O" opacity="1" fill-opacity="0" stroke="#ff1325" stroke-width="3" stroke-opacity="1"></use></g></g><g><g><use xlink:href="#b3gyifPeSb" opacity="1" fill-opacity="0" stroke="#ff1325" stroke-width="8" stroke-opacity="1"></use></g></g><g><g><use xlink:href="#b4D0Kxbcjn" opacity="1" fill-opacity="0" stroke="#ff1325" stroke-width="4" stroke-opacity="1"></use></g></g><g><g><use xlink:href="#cu6k37Bvi" opacity="1" fill-opacity="0" stroke="#ff1325" stroke-width="4" stroke-opacity="1"></use></g></g><g><g><use xlink:href="#b80EfyA9cM" opacity="1" fill-opacity="0" stroke="#ff1325" stroke-width="4" stroke-opacity="1"></use></g></g><g><g><use xlink:href="#b4YguC88Wp" opacity="1" fill-opacity="0" stroke="#ff1325" stroke-width="8" stroke-opacity="1"></use></g></g><g><g><use xlink:href="#aqYK6jG8G" opacity="1" fill-opacity="0" stroke="#ff1325" stroke-width="4" stroke-opacity="1"></use></g></g><g><g><use xlink:href="#b3H8tJUkm1" opacity="1" fill-opacity="0" stroke="#ff1325" stroke-width="6" stroke-opacity="1"></use></g></g><g><g><use xlink:href="#awqDuheVF" opacity="1" fill-opacity="0" stroke="#ff1325" stroke-width="5" stroke-opacity="1"></use></g></g><g><g><use xlink:href="#b128VFsKIc" opacity="1" fill-opacity="0" stroke="#ff1325" stroke-width="10" stroke-opacity="1"></use></g></g><g><g><use xlink:href="#a1CJewX8R" opacity="1" fill-opacity="0" stroke="#ff1325" stroke-width="6" stroke-opacity="1"></use></g></g><g><g><use xlink:href="#b1rpZKsi9N" opacity="1" fill-opacity="0" stroke="#ff1325" stroke-width="6" stroke-opacity="1"></use></g></g><g><g><use xlink:href="#d8SFfoI9j" opacity="1" fill-opacity="0" stroke="#ff1325" stroke-width="8" stroke-opacity="1"></use></g></g><g><g><use xlink:href="#atXbzqgVa" opacity="1" fill-opacity="0" stroke="#ff1325" stroke-width="6" stroke-opacity="1"></use></g></g><g><g><use xlink:href="#b1I9FUPbeC" opacity="1" fill-opacity="0" stroke="#ff1325" stroke-width="8" stroke-opacity="1"></use></g></g><g><g><use xlink:href="#b6SmdKNKP" opacity="1" fill-opacity="0" stroke="#ff1325" stroke-width="6" stroke-opacity="1"></use></g></g><g><g><use xlink:href="#baioMyMlw" opacity="1" fill-opacity="0" stroke="#ff1325" stroke-width="6" stroke-opacity="1"></use></g></g></g></g></svg>